<svg width="31" height="32" viewBox="0 0 31 32" fill="none" xmlns="http://www.w3.org/2000/svg">
<circle cx="15.7313" cy="15.8844" r="2.1772" fill="white" fill-opacity="0.4"/>
<circle cx="22.1916" cy="15.8844" r="2.1772" fill="white" fill-opacity="0.6"/>
<circle cx="28.6518" cy="15.8844" r="2.1772" fill="white"/>
<path fill-rule="evenodd" clip-rule="evenodd" d="M27.8775 6.37857C28.8937 7.68032 28.2827 9.50348 26.809 10.2488C25.3353 10.9941 23.5618 10.3541 22.3925 9.18792C21.6434 8.44083 20.7683 7.82067 19.8002 7.35953C17.9241 6.46592 15.8046 6.22 13.7738 6.66032C11.7429 7.10063 9.91556 8.20229 8.57805 9.79264C7.24054 11.383 6.46848 13.3722 6.38284 15.4484C6.29721 17.5247 6.90286 19.5707 8.10487 21.2658C9.30688 22.9609 11.0373 24.2093 13.025 24.8153C15.0127 25.4213 17.1453 25.3508 19.0885 24.6147C20.0914 24.2349 21.0145 23.6889 21.8226 23.006C23.084 21.9401 24.9042 21.4483 26.3115 22.3124C27.7188 23.1765 28.1776 25.0438 27.0577 26.2575C25.4494 28.0003 23.4499 29.3577 21.2069 30.2073C19.4772 30.8625 17.6559 31.1956 15.8308 31.2036L15.8309 31.2038L2.79615 31.7161L5.93956 27.6543C4.91824 26.8055 4.00475 25.8224 3.22656 24.725C1.25886 21.9501 0.267413 18.6008 0.407592 15.202C0.54777 11.8031 1.81165 8.54685 4.00117 5.94342C6.19069 3.33999 9.18209 1.53657 12.5066 0.815776C15.8311 0.0949813 19.3008 0.497552 22.3719 1.9604C24.5373 2.99181 26.4183 4.50922 27.8775 6.37857Z" fill="white"/>
</svg>
