<svg width="22" height="22" viewBox="0 0 22 22" fill="none" xmlns="http://www.w3.org/2000/svg">
<path d="M18.8692 7.08287V12.2241C18.8692 12.5214 18.5806 12.7312 18.3008 12.6438L14.8646 11.5771C13.9203 11.2885 12.906 11.5334 12.2153 12.2241C11.5158 12.9236 11.2622 13.9466 11.5595 14.8909L12.6175 18.3009C12.7049 18.5807 12.4951 18.8692 12.1978 18.8692H7.08281C4.06627 18.8692 2.25635 17.068 2.25635 14.0428V7.08287C2.25635 4.05759 4.06627 2.25641 7.08281 2.25641H14.0427C17.0592 2.25641 18.8692 4.05759 18.8692 7.08287Z" fill="white"/>
<path d="M19.7086 16.9806L18.2834 17.4615C17.89 17.5927 17.5752 17.8987 17.4441 18.3009L16.9632 19.7261C16.5522 20.9589 14.821 20.9327 14.4363 19.6999L12.8187 14.4974C12.5039 13.4657 13.457 12.5039 14.48 12.8274L19.6912 14.445C20.9153 14.8297 20.9328 16.5697 19.7086 16.9806Z" fill="white"/>
<rect x="10.7396" y="7.73047" width="0.401253" height="4.81504" rx="0.200627" fill="black"/>
<rect x="13.3478" y="9.93744" width="0.401253" height="4.81504" rx="0.200627" transform="rotate(90 13.3478 9.93744)" fill="black"/>
</svg>
