<svg width="22" height="22" viewBox="0 0 22 22" fill="none" xmlns="http://www.w3.org/2000/svg">
<path d="M19.8891 11.9955V8.37933C19.8891 3.85911 18.081 2.05103 13.5608 2.05103H8.13654C3.61632 2.05103 1.80823 3.85911 1.80823 8.37933V13.8036C1.80823 18.3238 3.61632 20.1319 8.13654 20.1319H11.7527" stroke="white" stroke-width="1.35607" stroke-linecap="round" stroke-linejoin="round"/>
<path d="M19.8891 11.9955V8.37933C19.8891 3.85911 18.081 2.05103 13.5608 2.05103H8.13654C3.61632 2.05103 1.80823 3.85911 1.80823 8.37933V13.8036C1.80823 18.3238 3.61632 20.1319 8.13654 20.1319H11.7527" stroke="white" stroke-width="1.35607" stroke-linecap="round" stroke-linejoin="round"/>
<path d="M6.32843 9.95227V12.8452" stroke="white" stroke-width="1.35607" stroke-linecap="round" stroke-linejoin="round"/>
<path d="M15.3688 9.95227V12.8452" stroke="white" stroke-width="1.35607" stroke-linecap="round" stroke-linejoin="round"/>
<path d="M1.80823 11.9956V13.8037C1.80823 18.3239 3.61632 20.132 8.13654 20.132H11.7527" stroke="white" stroke-width="1.35607" stroke-linecap="round" stroke-linejoin="round"/>
<path d="M19.8891 11.9955V8.37933C19.8891 3.85911 18.081 2.05103 13.5608 2.05103H8.13654C3.61632 2.05103 1.80823 3.85911 1.80823 8.37933" stroke="white" stroke-width="1.35607" stroke-linecap="round" stroke-linejoin="round"/>
<path d="M14.4655 17.8085L15.8938 19.2278L18.9857 15.6116" stroke="white" stroke-width="1.35607" stroke-linecap="round" stroke-linejoin="round"/>
<path d="M10.8491 9.7356V12.4477" stroke="white" stroke-width="1.35607" stroke-linecap="round" stroke-linejoin="round"/>
</svg>
