<svg width="84" height="86" viewBox="0 0 84 86" fill="none" xmlns="http://www.w3.org/2000/svg">
<circle cx="42.1828" cy="42.405" r="5.98826" fill="#CF3A46" fill-opacity="0.4"/>
<circle cx="59.9514" cy="42.405" r="5.98826" fill="#CF3A46" fill-opacity="0.6"/>
<circle cx="77.7201" cy="42.405" r="5.98826" fill="#CF3A46"/>
<path fill-rule="evenodd" clip-rule="evenodd" d="M75.5903 16.26C78.3852 19.8404 76.7046 24.8548 72.6514 26.9048C68.5981 28.9547 63.7201 27.1944 60.504 23.9869C58.4436 21.9321 56.0369 20.2264 53.3741 18.958C48.2141 16.5002 42.3844 15.8238 36.7988 17.0349C31.2131 18.2459 26.187 21.276 22.5083 25.6502C18.8295 30.0243 16.706 35.4954 16.4705 41.2061C16.235 46.9167 17.9008 52.544 21.2068 57.2063C24.5129 61.8685 29.2723 65.3022 34.7393 66.9691C40.2063 68.636 46.0719 68.4419 51.4167 66.4174C54.1749 65.3726 56.714 63.8709 58.9365 61.9927C62.4059 59.061 67.4122 57.7083 71.2829 60.085C75.1536 62.4618 76.4156 67.5976 73.3353 70.9357C68.9119 75.7292 63.4124 79.4626 57.2432 81.7994C52.4857 83.6014 47.4762 84.5176 42.4566 84.5398L42.4567 84.5402L6.60545 85.9492L15.2512 74.7777C12.4422 72.4429 9.92968 69.7391 7.78933 66.7208C2.37729 59.0886 -0.34963 49.8766 0.0359219 40.5282C0.421474 31.1799 3.89771 22.2237 9.91984 15.0631C15.942 7.90255 24.1696 2.94235 33.3135 0.959845C42.4573 -1.02266 52.0005 0.0845911 60.4475 4.10806C66.4032 6.94491 71.5767 11.1184 75.5903 16.26Z" fill="url(#paint0_linear_45_2078)"/>
<defs>
<linearGradient id="paint0_linear_45_2078" x1="13.3309" y1="83.8443" x2="77.3543" y2="19.8209" gradientUnits="userSpaceOnUse">
<stop offset="0.353037" stop-color="#CF3A46"/>
<stop offset="1" stop-color="#FFF0BF"/>
</linearGradient>
</defs>
</svg>
