<svg width="16" height="16" viewBox="0 0 16 16" fill="none" xmlns="http://www.w3.org/2000/svg">
<path d="M13.0881 2.87145C13.7509 3.53428 14.1322 4.42736 14.1525 5.36447C14.1728 6.30157 13.8306 7.21035 13.1972 7.90128L13.0881 8.01547L7.4297 13.6739C7.02839 14.076 6.48611 14.3057 5.91808 14.3144C5.35006 14.323 4.80106 14.1097 4.38775 13.72C3.97443 13.3303 3.72938 12.7947 3.70465 12.2272C3.67992 11.6596 3.87747 11.1048 4.25532 10.6806L4.34329 10.5875L9.48731 5.44346C9.61856 5.3125 9.79488 5.23659 9.98022 5.23126C10.1656 5.22593 10.3459 5.29157 10.4845 5.41477C10.6231 5.53797 10.7094 5.70943 10.7258 5.89413C10.7422 6.07882 10.6874 6.2628 10.5727 6.40848L10.5161 6.47227L5.37209 11.6163C5.24112 11.7475 5.16522 11.9239 5.15989 12.1092C5.15456 12.2945 5.2202 12.4749 5.3434 12.6135C5.4666 12.7521 5.63806 12.8384 5.82276 12.8547C6.00745 12.8711 6.19143 12.8164 6.33711 12.7017L6.40089 12.6451L12.0593 6.98667C12.4614 6.58536 12.6912 6.04308 12.6998 5.47505C12.7084 4.90703 12.4952 4.35803 12.1054 3.94472C11.7157 3.5314 11.1801 3.28635 10.6126 3.26162C10.045 3.23689 9.49022 3.43444 9.06601 3.81229L8.97291 3.90025L4.34329 8.52988C4.21203 8.66084 4.03572 8.73674 3.85038 8.74208C3.66503 8.74741 3.48465 8.68177 3.34608 8.55857C3.20751 8.43537 3.12122 8.2639 3.10483 8.07921C3.08844 7.89452 3.14319 7.71054 3.2579 7.56486L3.31448 7.50107L7.9441 2.87145C8.62624 2.18931 9.55142 1.80609 10.5161 1.80609C11.4808 1.80609 12.406 2.18931 13.0881 2.87145Z" fill="#6E7979"/>
</svg>
