<svg width="12" height="7" viewBox="0 0 12 7" fill="none" xmlns="http://www.w3.org/2000/svg">
<path fill-rule="evenodd" clip-rule="evenodd" d="M6.50648 6.14613C6.36009 6.29248 6.16156 6.3747 5.95456 6.3747C5.74756 6.3747 5.54903 6.29248 5.40264 6.14613L0.986493 1.72998C0.911933 1.65797 0.852461 1.57183 0.811548 1.47659C0.770634 1.38134 0.749099 1.27891 0.748198 1.17525C0.747298 1.0716 0.76705 0.968803 0.806302 0.872863C0.845553 0.776924 0.903519 0.689762 0.976817 0.616465C1.05011 0.543167 1.13728 0.485202 1.23321 0.44595C1.32915 0.406698 1.43195 0.386946 1.5356 0.387847C1.63926 0.388748 1.7417 0.410283 1.83694 0.451196C1.93218 0.492109 2.01832 0.551581 2.09033 0.626141L5.95456 4.49037L9.81879 0.626141C9.96602 0.483939 10.1632 0.405254 10.3679 0.407032C10.5726 0.408811 10.7684 0.490911 10.9131 0.63565C11.0579 0.78039 11.14 0.976187 11.1417 1.18087C11.1435 1.38556 11.0648 1.58275 10.9226 1.72998L6.50648 6.14613Z" fill="white"/>
</svg>
