<svg width="23" height="22" viewBox="0 0 23 22" fill="none" xmlns="http://www.w3.org/2000/svg">
<path d="M11.5458 20.2042C11.2746 20.2042 11.0034 20.1409 10.7774 20.0144C9.08681 19.0923 6.12153 18.1159 4.2592 17.8718L3.99704 17.8357C2.81275 17.691 1.83636 16.579 1.83636 15.3766V4.45576C1.83636 3.74156 2.11662 3.09068 2.63193 2.62058C3.14723 2.15048 3.81619 1.92445 4.52135 1.98774C6.50121 2.15046 9.50265 3.14492 11.2022 4.20266L11.4192 4.32924C11.4825 4.35636 11.6181 4.3654 11.6724 4.32924L11.817 4.2388C12.4227 3.8591 13.1821 3.48843 14.0138 3.15393C14.2217 3.07257 14.4568 3.09971 14.6467 3.22627C14.8365 3.35284 14.945 3.56076 14.945 3.78678V6.20961L15.6954 5.71239C15.9214 5.55871 16.2197 5.55871 16.4457 5.71239L17.1961 6.20961V2.75621C17.1961 2.43075 17.4311 2.15045 17.7475 2.08717C18.0097 2.04197 18.2719 2.00582 18.5069 1.98774C18.525 1.98774 18.5973 1.98774 18.6154 1.98774C19.2754 1.93349 19.9534 2.15953 20.4597 2.62963C20.975 3.09973 21.2552 3.75061 21.2552 4.46481V15.3766C21.2552 16.588 20.2789 17.691 19.0855 17.8357L18.7872 17.8718C16.9249 18.1159 13.9415 19.1013 12.2871 20.0144C12.0882 20.1409 11.817 20.2042 11.5458 20.2042ZM4.29534 3.3257C4.00604 3.3257 3.7439 3.42516 3.53597 3.61501C3.30996 3.82294 3.18338 4.12126 3.18338 4.45576V15.3766C3.18338 15.91 3.64446 16.4253 4.15976 16.4976L4.43097 16.5338C6.46507 16.805 9.58403 17.8266 11.3921 18.821C11.4735 18.8572 11.591 18.8663 11.6362 18.8482C13.4533 17.8447 16.5813 16.8141 18.6245 16.5429L18.9318 16.5067C19.4471 16.4434 19.9082 15.9191 19.9082 15.3857V4.47386C19.9082 4.13936 19.7816 3.85007 19.5556 3.6331C19.3296 3.42517 19.0132 3.32572 18.6878 3.3438C18.6606 3.3438 18.5793 3.3438 18.5612 3.3438V7.47529C18.5612 7.72842 18.4256 7.95441 18.1995 8.07194C17.9735 8.18946 17.7114 8.18044 17.5035 8.03579L16.0751 7.08656L14.6467 8.03579C14.4387 8.1714 14.1765 8.18946 13.9505 8.07194C13.7336 7.95441 13.5889 7.72842 13.5889 7.47529V4.82645C13.2002 5.0163 12.8476 5.20614 12.5402 5.38695L12.3956 5.47733C11.8984 5.78471 11.1932 5.78472 10.7141 5.48638L10.4971 5.35081C8.96929 4.39252 6.18479 3.47035 4.41287 3.3257C4.36767 3.3257 4.3315 3.3257 4.29534 3.3257Z" fill="white"/>
<path d="M11.546 19.4448C11.1754 19.4448 10.868 19.1374 10.868 18.7668V5.20611C10.868 4.83545 11.1754 4.52808 11.546 4.52808C11.9167 4.52808 12.224 4.83545 12.224 5.20611V18.7668C12.224 19.1465 11.9167 19.4448 11.546 19.4448Z" fill="white"/>
<path d="M17.8743 8.15327C17.7387 8.15327 17.6122 8.1171 17.4947 8.03574L16.0663 7.0865L14.6379 8.03574C14.4299 8.17135 14.1678 8.18941 13.9418 8.07188C13.7248 7.95436 13.5801 7.72837 13.5801 7.47524V3.78672C13.5801 3.50647 13.7519 3.26236 14.005 3.15388C15.2526 2.65666 16.6177 2.26792 17.7659 2.08711C17.9648 2.05095 18.1636 2.11427 18.3173 2.24084C18.471 2.36741 18.5524 2.55726 18.5524 2.75615V7.47524C18.5524 7.72837 18.4168 7.95436 18.1907 8.07188C18.0913 8.12612 17.9828 8.15327 17.8743 8.15327ZM16.0663 5.59481C16.1928 5.59481 16.3284 5.63098 16.4459 5.71234L17.1963 6.20955V3.57881C16.4731 3.74154 15.6866 3.97659 14.9362 4.25684V6.20955L15.6866 5.71234C15.8041 5.63098 15.9397 5.59481 16.0663 5.59481Z" fill="white"/>
</svg>
