<svg width="27" height="28" viewBox="0 0 27 28" fill="none" xmlns="http://www.w3.org/2000/svg">
<path opacity="0.4" d="M18.4689 5.35236H9.31472C5.33844 5.35236 2.96796 7.72284 2.96796 11.6991V18.6576C2.96796 22.6448 5.33844 25.0153 9.31472 25.0153H18.458C22.4343 25.0153 24.8048 22.6448 24.8048 18.6685V11.6991C24.8157 7.72284 22.4452 5.35236 18.4689 5.35236Z" fill="#CF3A46"/>
<path d="M24.051 14.3427H20.2495C19.179 14.3427 18.2286 14.9325 17.7479 15.8938L16.8303 17.7072C16.6119 18.1442 16.1749 18.4173 15.6943 18.4173H12.1112C11.7726 18.4173 11.2919 18.3408 10.9752 17.7072L10.0575 15.9048C9.5769 14.9544 8.6156 14.3536 7.55598 14.3536H3.73263C3.3066 14.3536 2.96796 14.6922 2.96796 15.1182V18.6794C2.96796 22.6448 5.34936 25.0153 9.32565 25.0153H18.4798C22.2267 25.0153 24.5317 22.9616 24.8157 19.313V15.1073C24.8157 14.6922 24.477 14.3427 24.051 14.3427Z" fill="#CF3A46"/>
<path d="M16.6556 8.05052C16.3388 7.73373 15.8144 7.73373 15.4976 8.05052L14.7111 8.83704V3.16756C14.7111 2.71968 14.3397 2.34827 13.8918 2.34827C13.444 2.34827 13.0725 2.71968 13.0725 3.16756V8.83704L12.286 8.05052C11.9692 7.73373 11.4449 7.73373 11.1281 8.05052C10.8113 8.36732 10.8113 8.89166 11.1281 9.20845L13.3129 11.3932C13.3238 11.4042 13.3347 11.4042 13.3347 11.4151C13.4003 11.4806 13.4877 11.5352 13.575 11.5789C13.6843 11.6117 13.7826 11.6336 13.8918 11.6336C14.0011 11.6336 14.0994 11.6117 14.1977 11.568C14.296 11.5243 14.3834 11.4697 14.4708 11.3932L16.6556 9.20845C16.9724 8.89166 16.9724 8.36732 16.6556 8.05052Z" fill="#CF3A46"/>
</svg>
