<svg xmlns="http://www.w3.org/2000/svg" width="25" height="32" viewBox="0 0 25 32" fill="none">
  <path d="M15.625 0.375H3.125C2.2962 0.375 1.50134 0.70424 0.915291 1.29029C0.32924 1.87634 0 2.6712 0 3.5V28.5C0 29.3288 0.32924 30.1237 0.915291 30.7097C1.50134 31.2958 2.2962 31.625 3.125 31.625H21.875C22.7038 31.625 23.4987 31.2958 24.0847 30.7097C24.6708 30.1237 25 29.3288 25 28.5V9.75L15.625 0.375ZM8.59062 22.5469C8.10781 23 7.39531 23.2031 6.56562 23.2031C6.40475 23.2049 6.24395 23.1955 6.08437 23.175V25.4031H4.6875V19.2531C5.3179 19.1591 5.95487 19.1162 6.59219 19.125C7.4625 19.125 8.08125 19.2906 8.49844 19.6234C8.89531 19.9391 9.16406 20.4562 9.16406 21.0656C9.1625 21.6781 8.95938 22.1953 8.59062 22.5469ZM14.5391 24.6641C13.8828 25.2094 12.8844 25.4688 11.6641 25.4688C10.9328 25.4688 10.4156 25.4219 10.0641 25.375V19.2547C10.6947 19.1626 11.3315 19.1193 11.9688 19.125C13.1516 19.125 13.9203 19.3375 14.5203 19.7906C15.1688 20.2719 15.575 21.0391 15.575 22.1406C15.575 23.3328 15.1391 24.1562 14.5391 24.6641ZM20.3125 20.3281H17.9188V21.7516H20.1562V22.8984H17.9188V25.4047H16.5031V19.1719H20.3125V20.3281ZM15.625 11.3125H14.0625V3.5L21.875 11.3125H15.625Z" fill="white"/>
</svg>