<svg width="13" height="12" viewBox="0 0 13 12" fill="none" xmlns="http://www.w3.org/2000/svg">
<path d="M5.04695 1.83565C5.09626 1.7897 5.13581 1.73429 5.16325 1.67272C5.19068 1.61116 5.20543 1.5447 5.20662 1.47731C5.20781 1.40992 5.19541 1.34298 5.17017 1.28048C5.14492 1.21799 5.10735 1.16121 5.05969 1.11356C5.01203 1.0659 4.95526 1.02832 4.89277 1.00308C4.83027 0.977838 4.76333 0.965442 4.69594 0.966631C4.62855 0.96782 4.56209 0.98257 4.50053 1.01C4.43896 1.03743 4.38355 1.07698 4.3376 1.1263L0.155113 5.30878C0.0611241 5.40289 0.0083313 5.53046 0.0083313 5.66346C0.0083313 5.79646 0.0611241 5.92403 0.155113 6.01813L4.3376 10.2006C4.38355 10.2499 4.43896 10.2895 4.50053 10.3169C4.56209 10.3443 4.62855 10.3591 4.69594 10.3603C4.76333 10.3615 4.83027 10.3491 4.89277 10.3238C4.95526 10.2986 5.01203 10.261 5.05969 10.2134C5.10735 10.1657 5.14492 10.1089 5.17017 10.0464C5.19541 9.98394 5.20781 9.917 5.20662 9.84961C5.20543 9.78222 5.19068 9.71576 5.16325 9.6542C5.13581 9.59263 5.09626 9.53722 5.04695 9.49127L1.72104 6.16536H9.37666C9.66221 6.16518 9.945 6.22127 10.2089 6.33043C10.4727 6.43958 10.7125 6.59965 10.9145 6.8015C11.1164 7.00335 11.2767 7.24302 11.386 7.50682C11.4953 7.77062 11.5516 8.05336 11.5516 8.33891V11.3516C11.5516 11.4848 11.6044 11.6124 11.6986 11.7065C11.7927 11.8007 11.9203 11.8535 12.0535 11.8535C12.1866 11.8535 12.3142 11.8007 12.4084 11.7065C12.5025 11.6124 12.5554 11.4848 12.5554 11.3516V8.33891C12.5554 7.92154 12.4731 7.50827 12.3134 7.12268C12.1536 6.7371 11.9194 6.38677 11.6243 6.09171C11.3291 5.79665 10.9786 5.56264 10.593 5.40304C10.2073 5.24344 9.79403 5.16138 9.37666 5.16156H1.72104L5.04695 1.83565Z" fill="white"/>
</svg>
