<svg width="28" height="28" viewBox="0 0 28 28" fill="none" xmlns="http://www.w3.org/2000/svg">
<path d="M14.1304 23.6874H8.52351C5.15938 23.6874 2.91663 22.0054 2.91663 18.0805V10.2309C2.91663 6.30609 5.15938 4.62402 8.52351 4.62402H19.7373C23.1014 4.62402 25.3442 6.30609 25.3442 10.2309V13.595" stroke="white" stroke-width="1.68207" stroke-miterlimit="10" stroke-linecap="round" stroke-linejoin="round"/>
<path d="M19.7372 10.7915L16.2273 13.5949C15.0723 14.5145 13.1771 14.5145 12.0221 13.5949L8.52344 10.7915" stroke="white" stroke-width="1.68207" stroke-miterlimit="10" stroke-linecap="round" stroke-linejoin="round"/>
<path d="M21.0826 24.6966C23.0644 24.6966 24.671 23.09 24.671 21.1082C24.671 19.1264 23.0644 17.5198 21.0826 17.5198C19.1008 17.5198 17.4942 19.1264 17.4942 21.1082C17.4942 23.09 19.1008 24.6966 21.0826 24.6966Z" stroke="white" stroke-width="1.68207" stroke-linecap="round" stroke-linejoin="round"/>
<path d="M25.3442 25.3694L24.2228 24.248" stroke="white" stroke-width="1.68207" stroke-linecap="round" stroke-linejoin="round"/>
</svg>
