<svg width="14" height="14" viewBox="0 0 14 14" fill="none" xmlns="http://www.w3.org/2000/svg">
<path d="M12.1099 3.03081C11.2233 2.9427 10.3367 2.87661 9.44455 2.82705V2.82154L9.32339 2.10564C9.24079 1.59901 9.11964 0.83905 7.83102 0.83905H6.3882C5.10509 0.83905 4.98394 1.56596 4.89583 2.10014L4.78018 2.80502C4.26804 2.83806 3.75589 2.87111 3.24375 2.92067L2.12034 3.03081C1.88905 3.05283 1.72384 3.25659 1.74587 3.48237C1.76789 3.70816 1.96614 3.87337 2.19743 3.85134L3.32085 3.7412C6.20647 3.45484 9.11413 3.56498 12.0328 3.85685C12.0493 3.85685 12.0603 3.85685 12.0769 3.85685C12.2861 3.85685 12.4678 3.69714 12.4899 3.48237C12.5064 3.25659 12.3412 3.05283 12.1099 3.03081Z" fill="#FF9393"/>
<path d="M11.0967 4.63335C10.9645 4.49568 10.7828 4.41858 10.5955 4.41858H3.63479C3.44755 4.41858 3.26032 4.49568 3.13366 4.63335C3.007 4.77102 2.93541 4.95826 2.94642 5.151L3.28785 10.8011C3.34843 11.6382 3.42552 12.6845 5.34744 12.6845H8.88289C10.8048 12.6845 10.8819 11.6437 10.9425 10.8011L11.2839 5.15651C11.2949 4.95826 11.2233 4.77102 11.0967 4.63335ZM8.02931 9.9255H6.19551C5.96972 9.9255 5.78249 9.73827 5.78249 9.51248C5.78249 9.2867 5.96972 9.09947 6.19551 9.09947H8.02931C8.2551 9.09947 8.44233 9.2867 8.44233 9.51248C8.44233 9.73827 8.2551 9.9255 8.02931 9.9255ZM8.4919 7.72273H5.73843C5.51265 7.72273 5.32541 7.5355 5.32541 7.30971C5.32541 7.08393 5.51265 6.8967 5.73843 6.8967H8.4919C8.71768 6.8967 8.90491 7.08393 8.90491 7.30971C8.90491 7.5355 8.71768 7.72273 8.4919 7.72273Z" fill="#FF9393"/>
</svg>
